<svg xmlns="http://www.w3.org/2000/svg" width="221.528" height="41.619"><path d="M35.051 19.144a5.43 5.43 0 01-2.192-1.671 4.379 4.379 0 01-.9-2.373h4.116a1.654 1.654 0 00.647 1.2 2.334 2.334 0 001.456.449 2.03 2.03 0 001.2-.324 1.073 1.073 0 00.431-.863.93.93 0 00-.611-.881 11.118 11.118 0 00-2-.611 18.744 18.744 0 01-2.427-.7 3.909 3.909 0 01-1.654-1.186 3.245 3.245 0 01-.7-2.193 3.8 3.8 0 01.647-2.157 4.528 4.528 0 011.895-1.542 7.357 7.357 0 012.984-.575 6.026 6.026 0 014.044 1.276 4.917 4.917 0 011.69 3.361h-3.863a1.73 1.73 0 00-.629-1.186 2.119 2.119 0 00-1.384-.431 1.854 1.854 0 00-1.114.288 1 1 0 00-.4.827.948.948 0 00.629.881 10.522 10.522 0 001.943.589 22.864 22.864 0 012.463.737 4.1 4.1 0 011.69 1.222 3.414 3.414 0 01.7 2.265 3.6 3.6 0 01-.665 2.157 4.377 4.377 0 01-1.923 1.492 7.524 7.524 0 01-2.948.539 7.62 7.62 0 01-3.125-.59zM46.63 3.866a2.163 2.163 0 01-.7-1.6 2.076 2.076 0 01.7-1.618 2.77 2.77 0 013.559 0 2.137 2.137 0 01.7 1.618 2.039 2.039 0 01-.7 1.6 2.548 2.548 0 01-1.762.647 2.448 2.448 0 01-1.797-.647zm3.865 2.067v13.625h-4.17V5.933zm15.131 1.402a6.071 6.071 0 011.42 4.26v7.963h-4.152v-7.405a2.99 2.99 0 00-.7-2.121 2.782 2.782 0 00-3.811 0 2.99 2.99 0 00-.7 2.121v7.388h-4.172V5.933h4.17v1.8a4.228 4.228 0 011.708-1.42 5.342 5.342 0 012.409-.521 4.957 4.957 0 013.828 1.543zm12.045-1.007a4.318 4.318 0 011.672 1.546V5.933h4.17v13.589a7.744 7.744 0 01-.737 3.415 5.684 5.684 0 01-2.265 2.427 7.449 7.449 0 01-3.793.9 7.91 7.91 0 01-4.907-1.42 5.355 5.355 0 01-2.139-3.865h4.116a1.975 1.975 0 00.935 1.24 3.307 3.307 0 001.8.449 2.907 2.907 0 002.067-.737 3.142 3.142 0 00.773-2.373v-1.959a4.647 4.647 0 01-1.69 1.546 5.1 5.1 0 01-2.517.593 5.582 5.582 0 01-3.056-.863 5.951 5.951 0 01-2.159-2.458 8.975 8.975 0 010-7.388 5.918 5.918 0 012.157-2.445 5.737 5.737 0 013.056-.863 5.364 5.364 0 012.517.607zm.809 3.955a2.946 2.946 0 00-4.152-.09l-.072.072a3.383 3.383 0 00-.863 2.445 3.5 3.5 0 00.863 2.481 2.919 2.919 0 004.116.126l.108-.108a3.946 3.946 0 000-4.925zm12.24-8.79v18.065h-4.17V1.493zm15.8 12.205h-9.455a2.991 2.991 0 00.809 1.977 2.513 2.513 0 001.78.683 2.194 2.194 0 002.172-1.312h4.44a6.11 6.11 0 01-3.469 4.1 7.729 7.729 0 01-6.561-.252 6.041 6.041 0 01-2.445-2.445 7.41 7.41 0 01-.881-3.7 7.541 7.541 0 01.863-3.7A6.108 6.108 0 0196.2 6.604a7.9 7.9 0 017.1-.018 6 6 0 012.409 2.373 7.049 7.049 0 01.863 3.559 8.732 8.732 0 01-.052 1.18zm-4.206-2.121a2.382 2.382 0 00-.737-1.833 2.84 2.84 0 00-3.631-.018 2.971 2.971 0 00-.9 1.851zm7.374 1.025a2.164 2.164 0 01-.7-1.6 2.076 2.076 0 01.7-1.618 2.77 2.77 0 013.559 0 2.137 2.137 0 01.7 1.618 2.039 2.039 0 01-.7 1.6 2.548 2.548 0 01-1.762.647 2.606 2.606 0 01-1.797-.647zm7.708-3.581a6.064 6.064 0 012.409-2.445 7.439 7.439 0 013.559-.863 6.725 6.725 0 014.278 1.348 6.344 6.344 0 012.265 3.793h-4.44a2.14 2.14 0 00-2.175-1.564 2.184 2.184 0 00-1.833.9 4.151 4.151 0 00-.683 2.552 4.151 4.151 0 00.683 2.553 2.232 2.232 0 001.833.9 2.14 2.14 0 002.175-1.564h4.44a6.415 6.415 0 01-2.265 3.757 6.666 6.666 0 01-4.278 1.366 7.238 7.238 0 01-3.559-.863 5.849 5.849 0 01-2.409-2.445 8.416 8.416 0 010-7.424zm27.503 4.677h-9.455a2.991 2.991 0 00.809 1.977 2.513 2.513 0 001.78.683 2.194 2.194 0 002.175-1.312h4.44a6.11 6.11 0 01-3.469 4.1 7.729 7.729 0 01-6.561-.252 6.04 6.04 0 01-2.445-2.445 8.357 8.357 0 01-.018-7.424 6.107 6.107 0 012.427-2.445 7.9 7.9 0 017.099-.014 6 6 0 012.409 2.373 7.049 7.049 0 01.863 3.559 6.689 6.689 0 01-.054 1.2zm-4.206-2.121a2.382 2.382 0 00-.737-1.833 2.84 2.84 0 00-3.631-.018 2.971 2.971 0 00-.9 1.851zm10.658-10.084v18.065h-4.17V1.493zm7.19 0v18.065h-4.17V1.493zm8.701 7.528a6.064 6.064 0 012.409-2.445 7.439 7.439 0 013.559-.863 6.69 6.69 0 014.278 1.348 6.344 6.344 0 012.265 3.793h-4.44a2.14 2.14 0 00-2.175-1.564 2.184 2.184 0 00-1.833.9 4.15 4.15 0 00-.683 2.552 4.15 4.15 0 00.683 2.553 2.232 2.232 0 001.833.9 2.14 2.14 0 002.175-1.564h4.44a6.415 6.415 0 01-2.265 3.757 6.666 6.666 0 01-4.278 1.366 7.238 7.238 0 01-3.559-.863 5.849 5.849 0 01-2.409-2.445 8.416 8.416 0 010-7.424zm17.345 9.872a6.216 6.216 0 01-2.517-2.445 7.886 7.886 0 01.018-7.406 6.261 6.261 0 012.535-2.445 8.109 8.109 0 017.226 0 6.261 6.261 0 012.535 2.445 7.413 7.413 0 01.935 3.7 7.23 7.23 0 01-.935 3.7 6.351 6.351 0 01-2.57 2.445 7.721 7.721 0 01-3.631.863 7.529 7.529 0 01-3.596-.857zm5.626-3.631a3.565 3.565 0 00.845-2.535 3.638 3.638 0 00-.809-2.535 2.753 2.753 0 00-3.883-.162l-.162.162a3.637 3.637 0 00-.809 2.535 3.721 3.721 0 00.791 2.535 2.7 2.7 0 004.026 0zm13.335-8.773a4.442 4.442 0 012.427-.7v4.422h-1.15a3.486 3.486 0 00-2.337.665 2.992 2.992 0 00-.773 2.355v6.327h-4.167V5.933h4.17v2.445a5.422 5.422 0 011.83-1.889zm17.206 7.209h-9.455a2.992 2.992 0 00.809 1.977 2.513 2.513 0 001.78.683 2.194 2.194 0 002.175-1.312h4.44a6.11 6.11 0 01-3.469 4.1 7.729 7.729 0 01-6.561-.252 6.04 6.04 0 01-2.445-2.445 8.357 8.357 0 01-.018-7.424 6 6 0 012.427-2.445 7.9 7.9 0 017.1-.014 6 6 0 012.409 2.373 7.05 7.05 0 01.863 3.559 8.865 8.865 0 01-.055 1.2zm-4.206-2.121a2.382 2.382 0 00-.737-1.833 2.84 2.84 0 00-3.631-.018 2.971 2.971 0 00-.9 1.851z" fill="#361234"/><text transform="translate(119.528 35.972)" font-size="8" font-family="Avenir-Medium,Avenir" font-weight="500" fill="#361234"><tspan x="0" y="0">An Oncode Institute Facility</tspan></text><path d="M70.747 39.14c-2.348 0-5-.072-8.711-.27-4.676-.252-6.463-.449-8.59-1.186a22.4 22.4 0 01-3.492-1.6 8.826 8.826 0 00-4.234-1.386 21.464 21.464 0 00-5.6.845 31.992 31.992 0 00-3.452.953 7.067 7.067 0 01-2.408.485 11.727 11.727 0 01-7.464-2.713c-2.027-1.833-2.228-3.937-2.449-6.166-.221-2.283-.361-4.242-.5-5.968-.381-5-.6-8-1.967-11.594-1.509-3.936-2.473-4.542-2.934-4.542h-.02c-.14 0-.943.18-2.027 3.272a32.582 32.582 0 00-1.545 10.3c-.08 2.121-.181 4.53-.542 7.28a7.737 7.737 0 01-2.649 5.3 11.538 11.538 0 01-4.216 2.118 15.584 15.584 0 01-7.567.144.438.438 0 01-.361-.539.5.5 0 01.6-.324 14.661 14.661 0 007-.144 10.255 10.255 0 003.841-1.907 6.887 6.887 0 002.348-4.745c.361-2.714.442-5 .542-7.208.161-3.667.281-6.849 1.586-10.534 1.224-3.469 2.268-3.9 2.95-3.919 1.71-.052 2.95 2.591 3.933 5.179 1.4 3.7 1.646 6.759 2.027 11.828.12 1.726.281 3.667.5 5.95.2 2.157.381 4.009 2.148 5.608a10.7 10.7 0 006.725 2.441 5.9 5.9 0 002.087-.431 30.741 30.741 0 013.552-.989 21.965 21.965 0 015.9-.881 9.6 9.6 0 014.676 1.528 22.082 22.082 0 003.332 1.528c1.887.647 3.432.863 8.289 1.114a143.947 143.947 0 0015.334.126c2.91-.09 6.543-.216 12.062-.27h.3c3.773-.018 7.346-.054 8.891-1.708a4.685 4.685 0 001-2.229c.2-.845.4-1.726 1.385-1.941a2.386 2.386 0 012.007.719 5.291 5.291 0 002.429 1.15 5.028 5.028 0 002.85-.467 5.847 5.847 0 013.071-.539.474.474 0 01.442.5.5.5 0 01-.562.4 5.092 5.092 0 00-2.549.485 6.045 6.045 0 01-3.412.521 6.251 6.251 0 01-2.89-1.33c-.542-.4-.823-.593-1.124-.539-.321.072-.442.431-.642 1.258a5.364 5.364 0 01-1.2 2.624c-1.846 1.977-5.64 2-9.654 2.031h-.297c-5.5.036-9.112.162-12.022.27-2.431.04-4.418.112-6.727.112z" fill="#00bf97"/><path d="M77.99 41.619a11.9 11.9 0 01-5.134-1.15c-3.02-1.528-3.966-4.35-4.59-6.2-.2-.629-.523-1.564-.745-1.636-.282 0-.825 1.114-1.087 1.654-.6 1.24-1.228 2.517-2.376 2.517a1.572 1.572 0 01-1.268-.773 2.891 2.891 0 00-1.248-.989 4.147 4.147 0 00-2.476-.054 8.047 8.047 0 01-2.979.09 5.484 5.484 0 01-3.1-1.708c-.483-.485-.765-.737-1.208-.737h-.02c-.846.018-1.349 1.007-2.134 2.642-.946 2.013-2.114 4.494-4.973 5.788-1.631.737-2.859.611-6.12.306-1.188-.108-2.657-.252-4.53-.4-7.549-.575-13.367-.5-20.736-.431-3.8.036-7.69.18-11.535.431a.548.548 0 01-.564-.449.466.466 0 01.463-.485c3.865-.252 7.771-.4 11.576-.431 7.408-.072 13.247-.144 20.836.431 1.892.144 3.382.288 4.57.4 3.221.306 4.187.4 5.556-.216 2.516-1.132 3.624-3.451 4.489-5.321.805-1.69 1.49-3.164 3.04-3.2a2.644 2.644 0 011.993 1.025 4.409 4.409 0 002.557 1.42 7.243 7.243 0 002.6-.09 5.347 5.347 0 013.08.126 3.879 3.879 0 011.651 1.276c.262.306.342.4.463.4.5 0 1.047-1.132 1.449-1.977.564-1.168 1.067-2.193 1.993-2.193h.02c.946 0 1.288 1.007 1.711 2.283.6 1.833 1.449 4.332 4.107 5.68a10.834 10.834 0 006.04.953 11.221 11.221 0 004.268-1.69c1.248-.737 2.335-1.366 3.644-1.025a2.72 2.72 0 011.57 1.132 1.886 1.886 0 001.268.863 2.786 2.786 0 001.53-.2 6.093 6.093 0 012.436-.377 4.458 4.458 0 011.953.5 3.032 3.032 0 001.309.36 3.427 3.427 0 001.711-.431 32.226 32.226 0 013.483-1.276c.121-.036.745-.2 2.114-.557l.6-.162c1.792-.467 2.215-.593 2.8-.431a1.981 1.981 0 011.288 1.186 2.982 2.982 0 00.664.935.4.4 0 010 .629.548.548 0 01-.7 0 3.865 3.865 0 01-.866-1.186c-.221-.431-.322-.611-.664-.7-.262-.072-.584 0-2.214.431l-.6.162c-1.228.324-1.973.521-2.074.557a34.4 34.4 0 00-3.382 1.222 4.376 4.376 0 01-2.194.521 4 4 0 01-1.751-.467 3.268 3.268 0 00-1.53-.4 5.213 5.213 0 00-2.033.324 3.83 3.83 0 01-2.074.234 2.9 2.9 0 01-1.892-1.222 1.876 1.876 0 00-1.027-.791c-.866-.216-1.691.252-2.818.917a12.279 12.279 0 01-4.671 1.816 7.038 7.038 0 01-1.519.144z" fill="#fff" opacity=".982"/></svg>